<?xml version="1.0" encoding="UTF-8"?>
<svg width="834.5" height="221.24" version="1.1" viewBox="0 0 220.8 58.537" xmlns="http://www.w3.org/2000/svg" xmlns:xlink="http://www.w3.org/1999/xlink">
 <defs>
  <linearGradient id="linearGradient4576">
   <stop stop-opacity=".014851" offset="0"/>
   <stop stop-opacity=".5098" offset=".34594"/>
   <stop offset="1"/>
  </linearGradient>
  <linearGradient id="linearGradient4578-7" x1="65.186" x2="91.096" y1="248.54" y2="248.54" gradientTransform="translate(-4.4158 7.4663)" gradientUnits="userSpaceOnUse" xlink:href="#linearGradient4576"/>
  <linearGradient id="linearGradient5220" x1="65.186" x2="91.096" y1="248.54" y2="248.54" gradientUnits="userSpaceOnUse" xlink:href="#linearGradient4576"/>
 </defs>
 <g transform="translate(-23.023 -202.33)">
  <flowRoot fill="#000000" font-family="sans-serif" font-size="40px" letter-spacing="0px" word-spacing="0px" style="line-height:1.25" xml:space="preserve"><flowRegion><rect x="374.29" y="-257.14" width="28.571" height="157.14"/></flowRegion><flowPara/></flowRoot>
  <g style="font-feature-settings:normal;font-variant-caps:normal;font-variant-ligatures:normal;font-variant-numeric:normal" aria-label="So Many Numbers!">
   <path d="m146.45 215.22c-0.21599 0-0.41438 0.0779-0.5958 0.23409-0.17281 0.14699-0.25504 0.36748-0.24639 0.66146l0.46653 15.889-10.484-16.054c-0.16414-0.24805-0.38893-0.37207-0.67404-0.37207-0.21599 0-0.41487 0.0827-0.59629 0.24804-0.18145 0.16536-0.26768 0.38585-0.25903 0.66146l0.49229 18.452c0 0.22968 0.0822 0.43162 0.24639 0.60617 0.17279 0.17455 0.3627 0.262 0.57005 0.262 0.22463 0 0.42798-0.0917 0.60941-0.27544 0.18144-0.18374 0.26768-0.39997 0.25903-0.64802l-0.41454-15.448 10.497 16.068c0.16416 0.24804 0.38846 0.37207 0.67357 0.37207 0.21598 0 0.41485-0.0827 0.59629-0.24805 0.18143-0.15617 0.26767-0.37666 0.25902-0.66146l-0.55693-18.906c-9e-3 -0.28479-0.0994-0.49626-0.27214-0.63407-0.1728-0.1378-0.36319-0.2067-0.57054-0.2067zm-81.617 0.12402c-0.22463 0-0.4235 0.0827-0.59629 0.24805-0.17279 0.15618-0.25903 0.3719-0.25903 0.6475l0.22015 18.769c0 0.28479 0.08623 0.49626 0.25902 0.63406 0.17279 0.147 0.36318 0.22066 0.57053 0.22066 0.21599 0 0.41038-0.0737 0.58317-0.22066 0.18143-0.14698 0.27215-0.36747 0.27215-0.66145l-0.18175-15.985 0.62205 0.90951c0.50973 0.70739 1.05 1.4696 1.6202 2.2872 0.57885 0.81764 1.179 1.6217 1.801 2.4117 0.62205 0.79007 1.2441 1.4929 1.8661 2.1084 0.52701 0.50528 1.0065 0.75809 1.4385 0.75809 0.21599 0 0.41934-0.0551 0.60941-0.16537 0.43198-0.23885 1.0366-0.87275 1.8141-1.9017 0.76028-1.0106 1.9441-2.9398 3.551-5.7878l0.09039 15.572c0 0.28479 0.08672 0.50051 0.25951 0.64751 0.18143 0.14699 0.37582 0.22066 0.58317 0.22066 0.21599 0 0.41038-0.0737 0.58317-0.22066 0.17279-0.147 0.25902-0.36272 0.25902-0.64751l-0.11663-18.907c0-0.20212-0.07327-0.40406-0.22015-0.60617-0.14687-0.20211-0.34574-0.30334-0.59629-0.30334-0.16415 0-0.31966 0.0509-0.46654 0.15193-0.13823 0.0919-0.23743 0.19734-0.2979 0.31678l-0.50541 0.97823c-0.38878 0.74414-0.86428 1.6081-1.4258 2.5911-0.55293 0.97382-1.1919 2.0625-1.9177 3.266-0.83803 1.3872-1.5682 2.3518-2.1903 2.8939-0.89851-0.7074-2.6914-2.9494-5.3783-6.7252l-2.2029-3.1833c-0.17279-0.2113-0.38862-0.31678-0.6478-0.31678zm122.41 0.15141c-0.23327 0-0.43614 0.0875-0.60893 0.262-0.16414 0.16537-0.24639 0.37207-0.24639 0.62012l-0.0389 3.376c-0.026 2.0119-0.0519 3.7255-0.0778 5.1403-0.0173 1.4148-0.0387 2.531-0.0646 3.3486-0.0605 0.18374-0.0909 0.56959-0.0909 1.1576v0.11007c0 0.69821-0.0474 1.4699-0.14239 2.3151-0.0864 0.84519-0.12976 1.5941-0.12976 2.2464 0 0.33991 0.0693 0.63831 0.20751 0.89555 0.14687 0.24805 0.38414 0.37207 0.71244 0.37207 0.22463 0 0.41055-0.0917 0.55741-0.27543 0.15554-0.19293 0.24626-0.41341 0.27215-0.66146 0.0259-0.23886 0.0473-0.51924 0.0646-0.84077 0.0259-0.32155 0.0478-0.67984 0.0651-1.0749 1.1836 2.0762 2.7343 3.1145 4.6522 3.1145 1.1836 0 2.2159-0.23903 3.0971-0.71675 0.88123-0.48691 1.607-1.1759 2.1772-2.0671 0.39741-0.62471 0.687-1.2952 0.86843-2.0118 0.19007-0.71658 0.28527-1.4422 0.28527-2.1771 0-0.99218-0.15552-1.9616-0.46654-2.9078-0.30238-0.94625-0.72156-1.7778-1.2572-2.4944-0.93308-1.2402-2.1383-1.8604-3.6157-1.8604-0.12959 0-0.2547 5e-3 -0.37566 0.0139-1.6674 0.11024-3.3741 1.1024-5.1192 2.9766 0.0172-0.56958 0.0302-1.2358 0.0389-1.9983 9e-3 -0.77171 0.0176-1.6351 0.0262-2.5905l0.0389-3.3626c0-0.23886-0.0822-0.44981-0.24639-0.63355-0.16416-0.18374-0.35854-0.27595-0.58317-0.27595zm-157.95 0.37207c-1.4169 0-2.644 0.33074-3.6808 0.99219-1.0367 0.65227-1.7366 1.557-2.0994 2.7146-0.16415 0.52366-0.2459 1.0431-0.2459 1.5575 0 0.80846 0.16847 1.5388 0.50541 2.1911 0.33694 0.65228 0.72124 1.1897 1.1532 1.6123 0.64797 0.62471 1.3652 1.0747 2.1514 1.3503 0.7862 0.26643 1.7492 0.39946 2.8896 0.39946 0.33694 0 0.70428-0.0133 1.1017-0.0408 0.39742-0.0275 0.7862-0.0414 1.1663-0.0414 1.2787 0 2.2162 0.16537 2.8123 0.4961 0.43198 0.22967 0.82924 0.56942 1.1921 1.0196 0.36286 0.45015 0.54429 0.97857 0.54429 1.5849 0 0.18374-0.02145 0.3719-0.06464 0.56483-0.25918 1.1851-0.96347 2.058-2.1125 2.6184-0.94171 0.45935-1.9137 0.68885-2.9158 0.68885-0.21599 0-0.4363-9e-3 -0.66093-0.0274-2.4536-0.24805-4.4882-1.121-6.1038-2.6184-0.15551-0.14698-0.32847-0.22065-0.51854-0.22065-0.23327 0-0.43614 0.0965-0.60893 0.28938-0.17279 0.19292-0.25902 0.40917-0.25902 0.64802 0 0.23887 0.09471 0.44982 0.28478 0.63356 1.8661 1.7455 4.2118 2.761 7.0369 3.0458 0.29374 0.0275 0.58333 0.0413 0.86844 0.0413 1.2268 0 2.3847-0.26659 3.4733-0.79944 1.7279-0.84519 2.7861-2.1681 3.1749-3.9688 0.06912-0.30316 0.10351-0.60633 0.10351-0.9095 0-0.95544-0.27614-1.8008-0.82908-2.5358-0.54429-0.73496-1.1404-1.2766-1.7884-1.6257-0.86395-0.47772-2.0866-0.71676-3.6676-0.71676-0.3715 0-0.7558 0.0138-1.1532 0.0413s-0.75628 0.0413-1.0759 0.0413c-0.91579 0-1.6804-0.10123-2.2938-0.30334-0.60477-0.20212-1.1361-0.51906-1.594-0.95085-0.29374-0.28479-0.55693-0.63832-0.7902-1.0609-0.22463-0.43178-0.33727-0.9141-0.33727-1.4469 0-0.33072 0.05184-0.66145 0.15551-0.99219 0.25919-0.836 0.77356-1.4561 1.5425-1.8604 0.76892-0.4134 1.6801-0.62011 2.7341-0.62011 1.5551 0 2.9592 0.28462 4.2119 0.85421 1.2527 0.56958 2.294 1.2814 3.1234 2.1358 0.17279 0.16537 0.37566 0.24857 0.60893 0.24857 0.24191-9e-3 0.4363-0.10617 0.58317-0.28991 0.15551-0.19292 0.23327-0.39963 0.23327-0.62011 0-0.24805-0.08623-0.459-0.25903-0.63356-0.98491-1.0014-2.2031-1.833-3.6545-2.4944-1.4514-0.66145-3.0973-0.99219-4.9375-0.99219zm212.73 2.5497c-0.21599 0-0.41038 0.0917-0.58317 0.27543-0.17281 0.17456-0.27201 0.38603-0.2979 0.63407-0.27647 2.848-0.41502 5.25-0.41502 7.2068 0 1.0381 0.0389 1.9476 0.11663 2.7285v0.42736c0 0.65227 0.0867 1.1807 0.25951 1.5849 0.18143 0.39505 0.52237 0.59222 1.0235 0.59222 0.41469 0 0.70876-0.16537 0.88155-0.4961 0.1728-0.33073 0.25903-0.72559 0.25903-1.1849 0-0.10105-4e-3 -0.19275-0.0131-0.27543v-0.27595c0-0.10106 4e-3 -0.188 0.0131-0.26149 0.0432-0.983 0.0646-1.9476 0.0646-2.8939 0-2.5448-0.16399-4.9659-0.49229-7.2626-0.0346-0.20212-0.12527-0.38551-0.27215-0.55088-0.14687-0.16535-0.3283-0.24804-0.54429-0.24804zm-194.48 2.6009c-0.05184-7e-3 -0.10368-6e-3 -0.15551 4e-3 -1.5206 0.0643-2.8853 0.68442-4.0948 1.8604-1.2009 1.1667-1.9226 2.664-2.1645 4.4922-0.05184 0.37666-0.07776 0.74873-0.07776 1.1162 0 1.3872 0.36734 2.6874 1.1017 3.9 0.54429 0.88195 1.2615 1.6213 2.1514 2.2185 0.89852 0.58796 1.9826 0.88212 3.2526 0.88212 0.68253 0 1.3435-0.10123 1.9828-0.30334 0.63933-0.2113 1.214-0.49168 1.7238-0.84077 0.79484-0.54203 1.4727-1.309 2.0343-2.3012 0.56157-1.0014 0.84268-2.1314 0.84268-3.39 0-0.84519-0.09968-1.6121-0.29839-2.3012-0.19871-0.69821-0.48382-1.3321-0.85532-1.9017-1.3737-2.1222-3.1362-3.2522-5.2874-3.39-0.05184-0.023-0.10368-0.0381-0.15551-0.045zm50.891 0.14108c-0.21599 0-0.41438 0.0827-0.5958 0.24805-0.18143 0.15618-0.27215 0.36765-0.27215 0.63407 0 0.2113 0.10368 0.45458 0.31103 0.73019 0.22463 0.29397 0.47086 0.96497 0.73867 2.0123 0.27647 1.0565 0.43198 2.6412 0.46654 4.7542-0.17279 1.1392-0.25951 2.3837-0.25951 3.7341 0 0.39503 9e-3 0.79943 0.0262 1.2128 9e-3 0.27561 0.0994 0.48231 0.27214 0.62012 0.18143 0.1378 0.37582 0.2067 0.58317 0.2067 0.19007 0 0.36702-0.0599 0.53117-0.17931 0.16416-0.12862 0.25935-0.32154 0.28527-0.57878l0.0515-0.53743c0.12959-1.3413 0.19439-2.6732 0.19439-3.9961v-0.35812c0.16415-0.983 0.42781-1.9476 0.79068-2.8939 0.37149-0.95544 0.85947-1.7685 1.4642-2.4391 0.60477-0.67064 1.335-1.0703 2.1903-1.1989 0.20736-0.0275 0.41023-0.0413 0.60893-0.0413 0.73437 0 1.3823 0.18816 1.9439 0.56482 0.57021 0.36748 1.0368 0.85456 1.3996 1.4609 0.3715 0.60634 0.62669 1.263 0.76492 1.9704 0.095 0.4869 0.14239 0.98776 0.14239 1.5022 0 1.718-0.53581 3.5688-1.6071 5.5532-0.19004 0.33992-0.1811 0.64785 0.0262 0.92346 0.21599 0.26642 0.45774 0.39946 0.72557 0.39946 0.31966 0 0.55741-0.14206 0.71292-0.42685 1.2182-2.26 1.8273-4.4055 1.8273-6.4358 0-0.64309-0.0608-1.2722-0.18175-1.8877-0.18142-0.95544-0.52684-1.8464-1.0366-2.6732-0.50973-0.82681-1.1622-1.493-1.957-1.9983-0.79484-0.50528-1.7105-0.75809-2.7472-0.75809-0.2851 0-0.57469 0.0233-0.86843 0.0692-1.8575 0.28479-3.3738 1.5568-4.5487 3.8168-0.2851-1.6628-0.73868-2.8935-1.3607-3.6928-0.16415-0.2113-0.3715-0.31729-0.62204-0.31729zm-8.0215 0.0827c-0.64796 0-1.3219 0.12403-2.0217 0.37207-1.8316 0.62471-3.1968 1.8745-4.0953 3.7486-0.61341 1.277-0.91995 2.6179-0.91995 4.0235 0 1.0932 0.14255 2.0579 0.42766 2.8939 0.29374 0.82683 0.70396 1.5021 1.231 2.0257 0.29374 0.29397 0.64365 0.53777 1.0497 0.7307s0.85515 0.28939 1.3476 0.28939c0.34558 0 0.69996-0.0551 1.0628-0.16537 0.60477-0.0643 1.1924-0.33991 1.7626-0.82682 0.94171-0.80845 1.8229-1.9156 2.6437-3.3212 0.01729 1.6261 0.15983 2.9675 0.42766 4.024 0.06048 0.22967 0.16415 0.39504 0.31102 0.49609 0.14687 0.10106 0.30238 0.15142 0.46653 0.15142 0.21599 0 0.41438-0.0779 0.59581-0.2341 0.19007-0.14699 0.28527-0.34945 0.28527-0.60668 0-0.0827-0.013-0.16961-0.0389-0.26148-0.25055-0.99219-0.37566-2.2833-0.37566-3.8726 0-1.1392 0.0648-2.4345 0.19439-3.8861 0.0778-0.27561 0.11663-0.51889 0.11663-0.73019 0-0.11024-0.013-0.21572-0.0389-0.31678-0.17279-1.9109-0.88555-3.22-2.1383-3.9274-0.71708-0.40422-1.4817-0.60668-2.2938-0.60668zm141.11 0.11059c-0.76028 0-1.4775 0.14682-2.1514 0.4408-0.67388 0.29398-1.2222 0.73495-1.6455 1.3229-0.42334 0.57877-0.63517 1.2954-0.63517 2.1497 0 0.3491 0.0474 0.6936 0.14239 1.0335 0.19871 0.71657 0.56158 1.3319 1.0886 1.8464 0.52701 0.51446 1.1321 0.8685 1.8146 1.0614 0.49246 0.1378 1.2526 0.2067 2.2807 0.2067 0.22463 0 0.47534-5e-3 0.75181-0.0139 0.27646-0.0184 0.54413-0.0279 0.80331-0.0279 1.2009 0 1.9869 0.4044 2.3584 1.2128 0.12095 0.25723 0.18175 0.51004 0.18175 0.75809 0 0.4226-0.17295 0.83601-0.51853 1.2402-0.63069 0.73495-1.5463 1.1023-2.7472 1.1023-0.95899 0-1.8103-0.15636-2.5533-0.46871-0.743-0.31236-1.4169-0.74856-2.0216-1.309-0.15551-0.13781-0.34094-0.20671-0.55693-0.20671-0.22463 0-0.4235 0.0875-0.59629 0.262-0.16415 0.16537-0.24639 0.37207-0.24639 0.62012 0 0.2756 0.0952 0.50034 0.28527 0.67489 1.3564 1.2678 3.0586 2.0029 5.1061 2.205 0.19007 0.0184 0.3755 0.0279 0.55693 0.0279 0.89851 0 1.7498-0.19769 2.5533-0.59273 1.2787-0.61552 2.0602-1.5939 2.3453-2.9352 0.0432-0.22049 0.0651-0.44097 0.0651-0.66146 0-0.48691-0.11663-0.98776-0.3499-1.5022-0.36285-0.7717-0.89019-1.3319-1.5814-1.681-0.69116-0.35829-1.5938-0.53743-2.7083-0.53743-0.23327 0-0.46654 9e-3 -0.69981 0.0274s-0.45357 0.0279-0.66092 0.0279c-1.2614 0-2.1601-0.26183-2.6957-0.78548-0.48382-0.46853-0.72557-0.97841-0.72557-1.5296 0-0.20212 0.0344-0.41358 0.10352-0.63407 0.31966-1.0289 1.3694-1.5436 3.1491-1.5436 0.86396 0 1.7108 0.21147 2.5402 0.63407 0.83804 0.41341 1.5034 0.87293 1.9959 1.3782 0.15551 0.15618 0.3539 0.2341 0.59581 0.2341 0.2419-9e-3 0.43629-0.10565 0.58317-0.28939 0.15551-0.18374 0.23326-0.39045 0.23326-0.62012 0-0.23886-0.0862-0.44556-0.25902-0.62011-1.6502-1.672-3.7107-2.5079-6.1816-2.5079zm-79.363 0.0827c-0.18143 0-0.3539 0.0594-0.51805 0.1788-0.16414 0.11024-0.2723 0.2666-0.32415 0.46871-0.58749 2.3335-0.88107 4.4005-0.88107 6.2012 0 1.6904 0.28062 3.1924 0.84219 4.5062 0.56157 1.3045 1.3825 2.1679 2.4624 2.5905 0.44925 0.17454 0.90283 0.26199 1.3607 0.26199 0.70845 0 1.3649-0.17438 1.9697-0.52348 0.6134-0.35829 1.1577-0.80403 1.6329-1.3369 0.47517-0.53284 0.85548-1.0613 1.1406-1.5849 0.2851 2.0487 0.75164 3.2523 1.3996 3.6106 0.34559 0.19291 0.65661 0.21147 0.93308 0.0553 0.27646-0.15618 0.41453-0.40899 0.41453-0.75809 0-0.36748-0.14255-0.63407-0.42765-0.79943-9e-3 -9e-3 -0.043-0.0686-0.10352-0.17881-0.4838-0.95544-0.75195-3.0182-0.8038-6.1877 0.15551-0.93707 0.23327-1.943 0.23327-3.0179 0-0.76252-0.0389-1.5618-0.11663-2.3978-0.0259-0.2113-0.12064-0.39947-0.28479-0.56482-0.15551-0.16537-0.33694-0.24805-0.54429-0.24805-0.44062 0-0.72173 0.25706-0.84268 0.77153l-0.0904 1.5849c-0.0172 0.45016-0.0302 0.89113-0.0389 1.3229-9e-3 0.4226-0.0131 0.83125-0.0131 1.2263v0.60668c9e-3 0.19293 0.0131 0.38109 0.0131 0.56483-0.47517 2.6734-1.4561 4.5152-2.9421 5.5258-0.53565 0.36747-1.054 0.55138-1.5551 0.55138-0.58749 0-1.0929-0.22525-1.5162-0.6754-0.42333-0.45935-0.74732-1.0196-0.97195-1.681-0.31966-0.94625-0.47917-2.0397-0.47917-3.2799 0-1.6353 0.28062-3.5274 0.8422-5.6772 0.0864-0.30316 0.0346-0.56499-0.15552-0.78548-0.19007-0.22048-0.4019-0.33073-0.63516-0.33073zm-37.374 0.0961c-0.19871 0-0.38014 0.0647-0.5443 0.19327-0.16417 0.11943-0.25937 0.30759-0.28526 0.56482-0.17279 1.6261-0.25903 3.1144-0.25903 4.4648 0 2.4988 0.29807 4.5108 0.8942 6.0358 0.33694 0.87275 0.74716 1.548 1.231 2.0257 0.49245 0.46853 1.0931 0.7028 1.8015 0.7028 0.59613 0 1.1444-0.17915 1.6455-0.53743 0.50974-0.3583 0.97228-0.82206 1.387-1.3916 0.42334-0.56959 0.79019-1.1759 1.1012-1.819 0.31102-0.65227 0.56621-1.2724 0.76492-1.8604-0.0173 1.1667-0.0821 2.3884-0.19439 3.6654-0.10367 1.2678-0.27662 2.4852-0.51853 3.652-0.23327 1.1667-0.54877 2.177-0.94619 3.0313-0.38878 0.85439-0.88124 1.4469-1.4774 1.7777-0.31102 0.17455-0.65644 0.262-1.0366 0.262-0.54429 0-1.1579-0.18391-1.8404-0.55139-0.3283-0.15617-0.60892-0.12862-0.84219 0.0827-0.23327 0.2113-0.3499 0.45033-0.3499 0.71676 0 0.38584 0.14703 0.65669 0.44078 0.81287 0.92443 0.47772 1.8012 0.71675 2.6306 0.71675 0.63933 0 1.2399-0.15158 1.8015-0.45475 0.57022-0.30317 1.0756-0.77648 1.5162-1.4196 1.6761-2.4345 2.5139-6.7245 2.5139-12.871 0-1.4607-0.0473-3.0227-0.14239-4.6855l-0.15551-2.0671c-0.0346-0.24804-0.13823-0.43621-0.31102-0.56482-0.16415-0.12862-0.34558-0.19327-0.5443-0.19327-0.1987 0-0.38461 0.0689-0.55741 0.20671-0.16413 0.12861-0.25484 0.32154-0.27214 0.57877-0.3715 4.4373-1.3131 7.699-2.825 9.7844-0.65661 0.90032-1.2487 1.3503-1.7758 1.3503-0.57885 0-1.0753-0.53744-1.49-1.6123-0.50974-1.3137-0.76493-3.0962-0.76493-5.347 0-1.277 0.0822-2.7054 0.24639-4.2855v-0.11007c0-0.28479-0.0907-0.49627-0.27214-0.63407-0.1728-0.147-0.3627-0.22066-0.57005-0.22066zm108.77 0.0139c-2.1512 0.2848-3.8574 1.7455-5.1188 4.3822-0.0345-1.5802-0.14719-2.7515-0.33726-3.514-0.0432-0.17455-0.13791-0.3309-0.28478-0.4687s-0.31983-0.20671-0.51854-0.20671c-0.25918 0-0.46205 0.0874-0.60893 0.262-0.13823 0.16536-0.20751 0.38108-0.20751 0.64751 0 0.15617 0.0215 0.33107 0.0646 0.52399 0.10366 0.44098 0.18142 1.6764 0.23327 3.7068 0.0173 0.68902 0.0262 1.3277 0.0262 1.9156 0 0.80845-0.0349 1.6443-0.104 2.5079-0.0691 0.85438-0.1165 1.5344-0.14239 2.0397-9e-3 0.16537-0.043 0.33975-0.10351 0.52349-0.0519 0.18374-0.0778 0.36288-0.0778 0.53743 0 0.20211 0.0862 0.43162 0.25903 0.68885 0.17279 0.24804 0.38014 0.37207 0.62204 0.37207 0.18143 0 0.39726-0.0827 0.64781-0.24805 0.25918-0.17455 0.38878-0.36271 0.38878-0.56482 0-0.0551-8e-3 -0.11926-0.0258-0.19276-0.0173-0.0735-0.0258-0.16995-0.0258-0.28938 0-0.2113 8e-3 -0.43655 0.0258-0.67541 0.026-0.23886 0.0519-0.56483 0.0778-0.97824 0.12959-1.0014 0.31949-1.9755 0.57005-2.9218 1.0367-3.8861 2.6527-5.9759 4.8471-6.2699 0.25054-0.0275 0.43198-0.12402 0.54429-0.28938 0.11232-0.16536 0.16815-0.34928 0.16815-0.55139 0-0.22967-0.0733-0.44063-0.22015-0.63355-0.13823-0.20212-0.33711-0.30334-0.59629-0.30334zm-45.046 0.0274c-0.63068 0-1.2358 0.22048-1.8146 0.66145-0.89852 0.67983-1.5938 1.8056-2.0863 3.3765-0.26783-0.62471-0.60477-1.2268-1.0108-1.8056-0.39742-0.57878-0.85948-1.0473-1.3865-1.4056-0.52701-0.36748-1.1062-0.55087-1.7369-0.55087-1.27 0-2.3023 0.84485-3.0971 2.5352-0.2419-0.95544-0.57437-1.7224-0.9977-2.3012-0.16415-0.22049-0.3715-0.33073-0.62205-0.33073-0.22463 0-0.43198 0.0917-0.62205 0.27544-0.18143 0.17454-0.27214 0.38602-0.27214 0.63407 0 0.19292 0.0648 0.37206 0.19439 0.53743 0.70844 0.94625 1.1012 2.8432 1.179 5.6911-0.13823 1.1392-0.20702 2.4303-0.20702 3.8726 0 0.59715 0.013 1.2173 0.0389 1.8604 0.0173 0.27561 0.112 0.48232 0.28479 0.62012s0.36318 0.2067 0.57053 0.2067c0.19871 0 0.38014-0.0647 0.54429-0.19327 0.17277-0.12861 0.26748-0.32579 0.28478-0.59221l0.0778-0.95085c0.0691-0.88194 0.104-1.934 0.104-3.1559 0-0.4961-4e-3 -1.0198-0.0131-1.571 0.22463-1.7731 0.59597-3.1373 1.1143-4.0928 0.46654-0.85439 0.96795-1.2816 1.5036-1.2816 0.63069 0 1.3046 0.56976 2.0216 1.7089 0.66525 1.0473 1.1188 2.4572 1.3607 4.2302-0.0432 0.67064-0.0651 1.392-0.0651 2.1637 0 0.90031 0.0304 1.8697 0.0909 2.9078 0.0259 0.26642 0.12511 0.46836 0.2979 0.60616 0.17279 0.12862 0.35871 0.19276 0.55741 0.19276 0.19871 0 0.38014-0.0594 0.5443-0.1788 0.16417-0.12862 0.25937-0.32155 0.28526-0.57878 0.0604-0.4869 0.0993-0.94166 0.11664-1.3643 0.0259-0.4226 0.0389-0.827 0.0389-1.2128 0-0.45016-0.0175-0.88637-0.052-1.309-0.0259-0.4226-0.0648-0.84554-0.11664-1.2681 0.0691-0.89113 0.19423-1.7408 0.37566-2.5492 0.19007-0.80845 0.47119-1.5616 0.84268-2.2598 0.46654-0.86356 1.0323-1.2955 1.6975-1.2955 0.59613 0 1.1663 0.35353 1.7106 1.0609 0.4147 0.54203 0.73868 1.213 0.97195 2.0123 0.24191 0.79926 0.36302 1.7088 0.36302 2.7285 0 1.6077-0.41918 3.3117-1.2572 5.1124-0.16416 0.3491-0.14272 0.64751 0.0646 0.89555 0.20735 0.24805 0.43662 0.37207 0.68717 0.37207 0.35422 0 0.60892-0.15583 0.76444-0.46819 0.95035-2.0579 1.4254-4.0332 1.4254-5.9257 0-1.2311-0.14655-2.3335-0.44029-3.3073-0.29374-0.97382-0.69996-1.7959-1.2183-2.4665-0.43198-0.55122-0.91596-0.99696-1.4516-1.3369-0.52701-0.33992-1.0753-0.51004-1.6455-0.51004zm30.998 0.0139c-2.4796 0-4.4793 0.80827-5.9998 2.4252-1.175 1.2494-1.8618 2.7515-2.0605 4.5062-0.0345 0.33991-0.052 0.6664-0.052 0.97875 0 0.70739 0.0907 1.3455 0.27215 1.9151 0.18143 0.56958 0.44061 1.107 0.77756 1.6123 0.59612 0.90032 1.3134 1.5438 2.1514 1.9296 0.84667 0.38586 1.7578 0.57878 2.7341 0.57878 0.95035 0 1.9353-0.15635 2.9547-0.46871 1.0195-0.31235 2.0218-0.72576 3.0067-1.2402 0.31102-0.16536 0.46654-0.44574 0.46654-0.84078 0-0.24804-0.0862-0.45475-0.25903-0.62011-0.16414-0.16537-0.35854-0.24805-0.58317-0.24805-0.12959 0-0.25518 0.0323-0.37614 0.0966-1.9439 1.0198-3.65 1.5296-5.1188 1.5296-1.0972 0-2.0089-0.27085-2.7346-0.81288-0.71708-0.54202-1.2006-1.2909-1.4511-2.2464 0.0864 0.0184 0.15517 0.0274 0.20702 0.0274 3.594 0 6.3374-0.67949 8.2295-2.0392 0.67388-0.48691 1.1923-1.0153 1.5551-1.5849 0.3715-0.57878 0.55692-1.245 0.55692-1.9983 0-0.44097-0.0817-0.85863-0.2459-1.2537-0.30238-0.71658-0.81228-1.2678-1.5294-1.6536-0.71708-0.39504-1.551-0.59273-2.5013-0.59273zm-162.11 1.2263c0.06912 0.0275 0.13839 0.0413 0.20751 0.0413 0.81212 0.0551 1.5852 0.3355 2.3196 0.84078 0.743 0.49609 1.3476 1.1666 1.8141 2.0118 0.46654 0.83601 0.6998 1.7868 0.6998 2.8525 0 0.50528-0.0648 1.0061-0.19439 1.5022-0.12095 0.48691-0.30638 0.94166-0.55693 1.3643-0.38014 0.6339-0.93739 1.1761-1.6718 1.6263-0.72572 0.44097-1.5337 0.66146-2.4236 0.66146-0.63932 0-1.2614-0.12879-1.8661-0.38603-0.50109-0.22048-0.98507-0.55598-1.4516-1.0061-0.4579-0.45935-0.83372-1.0106-1.1275-1.6536-0.28511-0.64309-0.42766-1.3597-0.42766-2.1497 0-1.0289 0.20335-1.9612 0.60941-2.7972 0.4147-0.8452 0.97595-1.5252 1.6844-2.0397 0.70844-0.52365 1.5034-0.81304 2.3847-0.86817zm43.064 0.22066c0.79484 0 1.4214 0.25705 1.8793 0.77153 0.46654 0.51447 0.73868 1.213 0.81644 2.095-0.0086 0.0919-0.01712 0.18834-0.02576 0.28939-0.0086 0.0919-0.01759 0.18357-0.02624 0.27543-0.26783 0.8452-0.61773 1.6858-1.0497 2.5218-0.43198 0.83601-0.89404 1.5892-1.3865 2.2598-0.48382 0.67064-0.94187 1.19-1.3738 1.5575-0.43198 0.35826-0.72108 0.54643-0.86795 0.56483-0.19007 0.0184-0.36302 0.0507-0.51853 0.0966-0.14687 0.0367-0.30238 0.0548-0.46654 0.0548-0.49246 0-0.93307-0.19293-1.3219-0.57878-0.31102-0.31235-0.56573-0.78088-0.76444-1.4056-0.19871-0.62471-0.29839-1.3318-0.29839-2.1218 0-1.1208 0.26815-2.2466 0.8038-3.3765 0.63933-1.3413 1.6542-2.246 3.0451-2.7146 0.56157-0.19293 1.0799-0.28939 1.5551-0.28939zm102.78 0.12402h0.18127c0.75164 0 1.4041 0.2666 1.957 0.79944 0.55293 0.52365 0.9761 1.1989 1.2698 2.0257 0.30238 0.81764 0.45341 1.672 0.45341 2.5632 0 1.5618-0.42765 2.8296-1.283 3.8034-0.84667 0.97381-2 1.4604-3.4601 1.4604-1.8229 0-3.2226-1.5296-4.1988-4.5889-0.11232-0.35829-0.20303-0.63815-0.27215-0.84026 9e-3 -0.20211 0.0131-0.40883 0.0131-0.62012 0-0.2113 4e-3 -0.42277 0.0131-0.63407 1.918-2.5264 3.6934-3.8493 5.3263-3.9688zm16.277 0.22066c0.85531 0 1.5247 0.19717 2.0085 0.59221 0.17279 0.13781 0.31134 0.28515 0.41502 0.44132 0.11231 0.15618 0.16815 0.36288 0.16815 0.62012 0 0.44097-0.11663 0.83107-0.3499 1.171-0.23327 0.33073-0.57421 0.65721-1.0235 0.97874-1.607 1.1576-4.0393 1.7363-7.2964 1.7363-0.11232 0-0.22895 0.0276-0.3499 0.0827 0.0864-1.1576 0.41934-2.1545 0.99819-2.9905 0.58749-0.8452 1.3521-1.4929 2.2938-1.943 0.94171-0.45935 1.9869-0.68885 3.136-0.68885zm32.554 10.735c-0.27646 0-0.50973 0.15635-0.6998 0.4687-0.19006 0.31236-0.3371 0.67065-0.44078 1.0749-0.095 0.41341-0.14239 0.76694-0.14239 1.0609 0 0.87276 0.33246 1.4515 0.99771 1.7363 0.14686 0.0643 0.2979 0.0966 0.45341 0.0966 0.44062 0 0.76908-0.1749 0.98507-0.524 0.22463-0.3491 0.33678-0.74873 0.33678-1.1989 0-0.67065-0.23726-1.4286-0.71244-2.2738-0.16415-0.29398-0.42333-0.4408-0.77756-0.4408z" stroke="#000" stroke-linecap="round" stroke-width=".5" style="font-feature-settings:normal;font-variant-caps:normal;font-variant-ligatures:normal;font-variant-numeric:normal"/>
   <g transform="matrix(.13744 0 0 .13744 48.142 183.48)" stroke-width="1.9251">
    <path transform="translate(0 125.02)" d="m45.292 14.193c-1.1611 0.0448-2.2025 0.83388-2.5197 2.018l-5.7655 21.518-21.725-5.8213c-1.3424-0.35969-2.7125 0.43168-3.0722 1.7741l-3.8778 14.473c-0.35969 1.3424 0.43116 2.7125 1.7735 3.0722l21.725 5.8213-5.7655 21.518c-0.39049 1.4573 0.46813 2.9447 1.9255 3.3352l14.058 3.7667c1.4573 0.39049 2.9447-0.46813 3.3352-1.9255l5.7661-21.518 21.725 5.8213c1.3424 0.35969 2.7125-0.43116 3.0722-1.7735l3.8783-14.473c0.35969-1.3424-0.43168-2.7125-1.7741-3.0722l-21.725-5.8213 5.7655-21.518c0.39049-1.4573-0.46865-2.9447-1.926-3.3352l-14.058-3.7667c-0.27325-0.07322-0.54751-0.10284-0.81545-0.0925z" fill="#808080" fill-opacity=".4" stroke-opacity="0"/>
    <g transform="rotate(15 474.34 277.38)" stroke-width="1.9251">
     <path transform="matrix(.25557 -.068479 .068479 .25557 -23.271 252.98)" d="m184.04 45.957c-4.3884 0.16931-8.3262 3.1517-9.5254 7.627l-21.791 81.326-82.109-22.002c-5.0735-1.3594-10.254 1.6316-11.613 6.7051l-14.656 54.697c-1.3594 5.0735 1.6315 10.254 6.7051 11.613l82.109 22.002-21.791 81.324c-1.4759 5.508 1.7713 11.132 7.2793 12.607l53.129 14.236c5.508 1.4759 11.132-1.7713 12.607-7.2793l21.791-81.326 82.109 22.002c5.0735 1.3594 10.254-1.6296 11.613-6.7031l14.656-54.699c1.3594-5.0735-1.6315-10.254-6.7051-11.613l-82.109-22.002 21.791-81.324c1.4759-5.508-1.7713-11.132-7.2793-12.607l-53.129-14.236c-1.0328-0.27673-2.0693-0.38673-3.082-0.34766z" fill="#fa2909" stroke-opacity="0"/>
    </g>
   </g>
   <g transform="matrix(.1373 0 0 .1373 218.13 183.58)" stroke-opacity="0" stroke-width="1.9271">
    <rect transform="rotate(105)" x="128.34" y="-199.22" width="20" height="70" ry="2.5085" fill="#808080" fill-opacity=".4"/>
    <rect transform="rotate(105)" x="125.75" y="-202.06" width="20" height="70" ry="2.5085" fill="#ffd42a"/>
   </g>
   <g transform="matrix(.13512 -.036192 .036516 .13623 22.145 214.65)" stroke-linejoin="round">
    <path d="m34.012 207.8-31.443 54.011 41.045-12.506-4.8014-20.752zm53.342 30.542-20.523 6.2532-20.523 6.2524 4.8012 20.753 4.801 20.752 15.722-27.005z" fill="#808080" fill-opacity=".4" stroke="#808080" stroke-opacity=".4" stroke-width="8.5434"/>
    <path d="m36.858 206.98-31.443 54.011 41.045-12.506-4.8014-20.752zm53.342 30.542-20.523 6.2531-20.523 6.2524 4.8012 20.753 4.801 20.752 15.722-27.005z" fill="#1086e7" stroke="#1085e8" stroke-width="7.1195"/>
   </g>
   <g transform="matrix(.13334 .035728 -.035728 .13334 210.05 209.62)" stroke-width="1.9167">
    <g stroke-width="1.9167">
     <g fill="#808080" fill-opacity=".4">
      <circle transform="rotate(15 -349.01 183.38)" cx="118.23" cy="99.629" r="12" stroke-width="0"/>
      <rect transform="rotate(90 -30.504 66.076)" x="141.5" y="-122.79" width="20" height="70" ry="2.5085" stroke-opacity="0"/>
      <circle transform="rotate(15 -349.01 183.38)" cx="130.66" cy="146.32" r="12" stroke-width="0"/>
     </g>
     <g fill="#54b500">
      <rect transform="rotate(90)" x="235.81" y="-160.8" width="20" height="70" ry="2.5085" stroke-opacity="0"/>
      <circle cx="125.8" cy="221.81" r="12" stroke-width="0"/>
      <circle cx="125.8" cy="269.98" r="12" stroke-width="0"/>
     </g>
    </g>
   </g>
  </g>
  <g transform="translate(-6.2905)">
   <g stroke-width=".26458" style="font-feature-settings:normal;font-variant-caps:normal;font-variant-ligatures:normal;font-variant-numeric:normal" aria-label="Speedy Math Game">
    <path d="m101.95 248.44q-1.5706-0.2667-2.6522-0.2667-1.0816 0-1.7187 0.56304-0.6223 0.54821-0.6223 1.6002 0 0.59266 0.3556 0.85936 0.37042 0.2667 1.5113 0.68157 1.1557 0.40005 1.6002 0.87418 0.45932 0.47414 0.45932 1.4372 0 1.6595-0.99272 2.6077-0.99272 0.93345-2.6818 0.93345-1.2594 0-2.5485-0.29633l-0.42968-0.0889 0.19262-0.889q1.7187 0.2667 2.8596 0.2667 1.1409 0 1.778-0.6223 0.65193-0.63712 0.65193-1.8076 0-0.60749-0.32597-0.889-0.32597-0.29634-1.4372-0.68157t-1.6298-0.85937q-0.51858-0.47413-0.51858-1.4372 0-1.5113 0.96308-2.3707 0.9779-0.87418 2.6226-0.87418 1.215 0 2.3707 0.31115l0.38523 0.10371z" style="font-feature-settings:normal;font-variant-caps:normal;font-variant-ligatures:normal;font-variant-numeric:normal"/>
    <path d="m106.66 250.02q1.9262 0 1.9262 2.178 0 1.9558-0.94826 3.6597-0.4445 0.82974-1.1705 1.3483t-1.5854 0.51858q-0.85937 0-1.6891-0.20743l-0.29634-0.0741-0.78528 3.4226h-1.0964l2.4596-10.698h1.0816l-0.28152 1.3187q0.13335-0.16299 0.3556-0.40005 0.22225-0.25189 0.84455-0.65194 0.63712-0.41486 1.1853-0.41486zm-0.31115 0.96308q-0.41487 0-1.0075 0.4445-0.59266 0.42968-0.96308 0.87418l-0.38523 0.42969-0.889 3.8079q0.96308 0.22225 1.7632 0.22225t1.4076-0.78528q0.6223-0.78529 0.889-1.7928 0.28152-1.0075 0.28152-1.941 0-1.2594-1.0964-1.2594z" style="font-feature-settings:normal;font-variant-caps:normal;font-variant-ligatures:normal;font-variant-numeric:normal"/>
    <path d="m110.64 255.41q0 0.63712 0.38523 0.99272 0.38524 0.34078 0.94827 0.34078 1.052 0 2.1632-0.23706l0.37042-0.0889-0.0889 0.87418q-1.3187 0.42968-2.5336 0.42968-2.3558 0-2.3558-2.2521 0-2.0595 0.93345-3.6745 0.47413-0.8001 1.2594-1.289 0.8001-0.48895 1.7928-0.48895 2.1929 0 2.1929 1.8076 0 1.3187-0.99272 1.8521-0.99271 0.51859-3.156 0.51859h-0.75565q-0.16298 0.57785-0.16298 1.215zm1.1261-2.0892q1.5113 0 2.178-0.31115 0.66675-0.32596 0.66675-1.1705 0-0.889-1.1409-0.889-1.8224 0-2.5188 2.3707z" style="font-feature-settings:normal;font-variant-caps:normal;font-variant-ligatures:normal;font-variant-numeric:normal"/>
    <path d="m117.49 255.41q0 0.63712 0.38523 0.99272 0.38523 0.34078 0.94827 0.34078 1.052 0 2.1632-0.23706l0.37042-0.0889-0.0889 0.87418q-1.3187 0.42968-2.5336 0.42968-2.3558 0-2.3558-2.2521 0-2.0595 0.93345-3.6745 0.47413-0.8001 1.2594-1.289 0.8001-0.48895 1.7928-0.48895 2.1929 0 2.1929 1.8076 0 1.3187-0.99272 1.8521-0.99272 0.51859-3.156 0.51859h-0.75565q-0.16298 0.57785-0.16298 1.215zm1.1261-2.0892q1.5113 0 2.178-0.31115 0.66675-0.32596 0.66675-1.1705 0-0.889-1.1409-0.889-1.8224 0-2.5188 2.3707z" style="font-feature-settings:normal;font-variant-caps:normal;font-variant-ligatures:normal;font-variant-numeric:normal"/>
    <path d="m125.06 257.73q-1.8669 0-1.8669-2.1632 0-1.3039 0.41487-2.5485 0.41486-1.2446 1.289-2.1188 0.87418-0.87418 2.0002-0.87418 0.75565 0 1.6743 0.20743l0.29633 0.0593 0.78529-3.3486h1.1112l-2.4744 10.638h-1.0668l0.28152-1.3187q-0.13335 0.19262-0.4445 0.48895-0.29633 0.28152-0.56303 0.47414-0.72602 0.50376-1.4372 0.50376zm3.6153-6.5193q-0.9779-0.22225-1.778-0.22225-0.78529 0-1.3928 0.77047-0.60748 0.77046-0.889 1.7928t-0.28152 2.0002q0 1.215 1.0668 1.215 0.4445 0 1.0372-0.42968 0.59267-0.4445 0.9779-0.889l0.37042-0.42969z" style="font-feature-settings:normal;font-variant-caps:normal;font-variant-ligatures:normal;font-variant-numeric:normal"/>
    <path d="m131.34 250.17h1.0964l0.11854 6.4601h0.4445l3.23-6.4601h1.1409l-5.4081 10.683h-1.1261l1.7039-3.2745h-1.0075z" style="font-feature-settings:normal;font-variant-caps:normal;font-variant-ligatures:normal;font-variant-numeric:normal"/>
    <path d="m140.43 257.58 2.3707-10.253h1.9114l0.65193 8.6826 4.7413-8.6826h1.941l-2.3707 10.253h-1.1261l2.1484-9.2456h-0.16298l-4.8302 8.8752h-1.1853l-0.68156-8.8752h-0.14817l-2.1336 9.2456z" style="font-feature-settings:normal;font-variant-caps:normal;font-variant-ligatures:normal;font-variant-numeric:normal"/>
    <path d="m153.97 257.73q-1.8965 0-1.8965-2.2077 0-1.2298 0.38523-2.4448 0.40005-1.2298 1.289-2.1336 0.889-0.91863 2.0595-0.91863 0.90382 0 2.4744 0.2667l0.56304 0.10371-1.1261 4.8154q-0.20743 0.82973-0.3556 1.9558l-0.0593 0.38523-1.0816 0.0444q0.20743-1.2742 0.2667-1.5854-0.0741 0.13335-0.4445 0.51858-0.3556 0.37042-0.63712 0.60749-0.28152 0.22225-0.68157 0.41486-0.40005 0.1778-0.75565 0.1778zm3.5856-6.5342q-1.0372-0.20743-1.7928-0.20743-0.74083 0-1.3631 0.77047-0.6223 0.75565-0.90382 1.778-0.28152 1.0075-0.28152 1.8076t0.25189 1.1112q0.25188 0.31115 0.75565 0.31115 0.50376 0 1.0964-0.47413 0.60748-0.48895 1.0075-0.9779l0.38524-0.48895z" style="font-feature-settings:normal;font-variant-caps:normal;font-variant-ligatures:normal;font-variant-numeric:normal"/>
    <path d="m160.99 256.08q0 0.68157 0.74084 0.68157l1.1409-0.0889-0.0741 0.84455q-0.77047 0.20743-1.4668 0.20743-0.69639 0-1.0964-0.37041-0.40005-0.37042-0.40005-0.99272t0.23707-1.5706l0.85937-3.6597h-0.9779l0.25188-0.96309h0.96308l0.51859-2.1929h1.1112l-0.5334 2.1929h2.0743l-0.23707 0.96309h-2.0743l-0.85937 3.719q-0.1778 0.7112-0.1778 1.2298z" style="font-feature-settings:normal;font-variant-caps:normal;font-variant-ligatures:normal;font-variant-numeric:normal"/>
    <path d="m168.77 250.02q0.85936 0 1.3039 0.50376 0.4445 0.50377 0.4445 1.2742 0 0.77046-0.31115 2.0447l-0.85936 3.7338h-1.0964l0.85937-3.6894q0.2667-1.215 0.2667-1.778 0-1.1112-0.99272-1.1112-0.72601 0-1.778 1.0816-0.23707 0.25189-0.38524 0.42969l-0.13335 0.16298-1.1261 4.9043h-1.1112l2.4596-10.638h1.1112l-1.052 4.5339q0.13335-0.16298 0.3556-0.40005 0.22225-0.25188 0.84455-0.65193 0.63711-0.40005 1.2002-0.40005z" style="font-feature-settings:normal;font-variant-caps:normal;font-variant-ligatures:normal;font-variant-numeric:normal"/>
    <path d="m178.3 257.73q-3.0967 0-3.0967-2.9041 0-2.9189 1.2594-5.1858 0.6223-1.1112 1.6595-1.778 1.052-0.68156 2.3558-0.68156 1.2594 0 2.5336 0.3556l0.41487 0.10371-0.28152 0.85937q-1.4817-0.31115-2.8152-0.31115-0.8001 0-1.4668 0.42968-0.66675 0.41487-1.1112 1.1112-0.4445 0.68157-0.75565 1.5706-0.60749 1.6595-0.60749 3.5412 0 1.8817 2.0299 1.8817 0.65193 0 1.5261-0.1778l0.2667-0.0444 0.77047-3.2597h-1.5558l0.22225-0.9779h2.6966l-1.1853 5.0673q-1.3039 0.40005-2.8596 0.40005z" style="font-feature-settings:normal;font-variant-caps:normal;font-variant-ligatures:normal;font-variant-numeric:normal"/>
    <path d="m185.22 257.73q-1.8965 0-1.8965-2.2077 0-1.2298 0.38524-2.4448 0.40005-1.2298 1.289-2.1336 0.889-0.91863 2.0595-0.91863 0.90382 0 2.4744 0.2667l0.56303 0.10371-1.1261 4.8154q-0.20743 0.82973-0.3556 1.9558l-0.0593 0.38523-1.0816 0.0444q0.20743-1.2742 0.2667-1.5854-0.0741 0.13335-0.4445 0.51858-0.3556 0.37042-0.63712 0.60749-0.28151 0.22225-0.68156 0.41486-0.40005 0.1778-0.75565 0.1778zm3.5856-6.5342q-1.0372-0.20743-1.7928-0.20743-0.74083 0-1.3631 0.77047-0.6223 0.75565-0.90382 1.778-0.28151 1.0075-0.28151 1.8076t0.25188 1.1112 0.75565 0.31115 1.0964-0.47413q0.60749-0.48895 1.0075-0.9779l0.38523-0.48895z" style="font-feature-settings:normal;font-variant-caps:normal;font-variant-ligatures:normal;font-variant-numeric:normal"/>
    <path d="m195.9 252.11q0-1.1112-1.0075-1.1112-0.42969 0-1.0075 0.41486-0.56303 0.41487-0.91863 0.82974l-0.34078 0.41486-1.1409 4.9191h-1.0964l1.7039-7.4083h1.0816l-0.2667 1.289q0.34079-0.4445 0.8001-0.78528 0.90382-0.65193 1.615-0.65193 0.82973 0 1.2002 0.45931 0.34078 0.41487 0.41487 0.85937 0.13335-0.14817 0.37041-0.37042 0.25189-0.22225 0.90382-0.57785 0.65193-0.37041 1.2002-0.37041 0.85937 0 1.289 0.50376 0.4445 0.50377 0.4445 1.2446 0 0.74084-0.29633 2.0743l-0.85937 3.7338h-1.1112l0.85937-3.6894q0.28151-1.1261 0.28151-1.7632 0-1.1261-0.9779-1.1261-0.41486 0-0.93345 0.34078-0.50376 0.32597-0.81491 0.66675l-0.31115 0.32597q-0.0444 0.69638-0.25189 1.5113l-0.85936 3.7338h-1.1112l0.85936-3.6894q0.28152-1.1261 0.28152-1.778z" style="font-feature-settings:normal;font-variant-caps:normal;font-variant-ligatures:normal;font-variant-numeric:normal"/>
    <path d="m203.35 255.41q0 0.63712 0.38523 0.99272 0.38523 0.34078 0.94827 0.34078 1.052 0 2.1632-0.23706l0.37042-0.0889-0.0889 0.87418q-1.3187 0.42968-2.5336 0.42968-2.3558 0-2.3558-2.2521 0-2.0595 0.93345-3.6745 0.47413-0.8001 1.2594-1.289 0.8001-0.48895 1.7928-0.48895 2.1929 0 2.1929 1.8076 0 1.3187-0.99272 1.8521-0.99272 0.51859-3.156 0.51859h-0.75565q-0.16298 0.57785-0.16298 1.215zm1.1261-2.0892q1.5113 0 2.178-0.31115 0.66675-0.32596 0.66675-1.1705 0-0.889-1.1409-0.889-1.8224 0-2.5188 2.3707z" style="font-feature-settings:normal;font-variant-caps:normal;font-variant-ligatures:normal;font-variant-numeric:normal"/>
   </g>
   <path d="m65.693 248.54h24.896" fill="none" stroke="url(#linearGradient5220)" stroke-linecap="round"/>
   <path d="m61.277 256h24.896" fill="none" stroke="url(#linearGradient4578-7)" stroke-linecap="round"/>
  </g>
 </g>
</svg>
